<?xml version="1.0" encoding="utf-8"?>
<!-- Svg Vector Icons : http://www.onlinewebfonts.com/icon -->
<!DOCTYPE svg PUBLIC "-//W3C//DTD SVG 1.1//EN" "http://www.w3.org/Graphics/SVG/1.1/DTD/svg11.dtd">
<svg version="1.1" xmlns="http://www.w3.org/2000/svg" xmlns:xlink="http://www.w3.org/1999/xlink" x="0px" y="0px" viewBox="0 0 256 256" enable-background="new 0 0 256 256" xml:space="preserve">
<metadata> Svg Vector Icons : http://www.onlinewebfonts.com/icon </metadata>
<g><g><g><path fill="#99999999" d="M119.7,11.7c-0.9,0.1-3.6,0.4-6,0.7C93,14.8,71.1,24.1,54.1,37.8C30.2,57,15,84.2,10.6,115.6c-0.7,5.3-0.7,22.2,0,28c3.6,26.8,15.2,50.5,34.1,69.6c14.2,14.3,32.3,25,51,30.3c5.7,1.6,7.1,1.4,8.3-1.1c1.3-2.7-0.4-5-4.3-5.9c-7.5-1.8-19.4-6.7-27.4-11.3c-10.9-6.3-23.2-16.9-30.6-26.3c-12.1-15.3-19.9-33.5-23-53.4c-1.1-7.4-1.1-24,0-31.4c3.2-20.7,11.6-39.8,24.3-55C60.5,38,84.4,24.6,112.3,20.3c3.9-0.6,8.1-0.8,15.7-0.8c14.3,0,23.1,1.4,36.5,5.8c6.9,2.3,18.9,8.2,25.2,12.5c22.5,15.1,39,38.6,45.5,65.1c2.4,9.8,3,15.2,3,26.5c0,13.9-1.3,22.3-5.5,35.4c-2.3,7-2.2,8.1,0.3,9.4c1.8,0.9,2.4,0.8,4-0.5c2.4-2,6.3-15.7,8.3-28.3c0.9-6.2,1.1-23.9,0.2-29.9c-3.2-22.6-11.8-42.8-25.5-59.8c-18.9-23.4-45.5-38.6-75.8-43.2C139.6,11.9,123.2,11.3,119.7,11.7z"/><path fill="#99999999" d="M125.2,39.9c-1,1-1.1,1.6-1.1,4.6s0.1,3.6,1.1,4.6c1.6,1.7,4.1,1.7,5.6,0c1-1,1.1-1.6,1.1-4.6c0-3-0.1-3.6-1.1-4.6C129.3,38.2,126.8,38.2,125.2,39.9z"/><path fill="#99999999" d="M64,65.3c-1.9,1.9-1.6,3.9,1.1,6.7c1.2,1.2,2.7,2.4,3.4,2.6c2.6,0.6,5.4-2.1,4.8-4.8c-0.1-0.6-1.3-2.2-2.5-3.4c-1.8-1.8-2.5-2.2-3.9-2.2C65.6,64.1,64.8,64.4,64,65.3z"/><path fill="#99999999" d="M185.2,66.3c-2.5,2.5-3.2,4.3-2.2,6.1c0.9,1.5,2.9,2.5,4.4,2.1c0.6-0.1,2.2-1.3,3.4-2.5c1.8-1.9,2.3-2.5,2.3-3.9c0-2.3-1.7-3.9-4-3.9C187.7,64.1,187.1,64.5,185.2,66.3z"/><path fill="#99999999" d="M125.5,71.1l-1.2,0.9v20.9v20.9l-3,1.5c-3.5,1.8-5.7,4.1-7.6,7.9l-1.4,2.8H97.6H82.9l-1,1.1c-1.4,1.5-1.3,4,0,5.3c1.1,1,1.3,1,15.9,1h14.9l1.2,2.4c5,9.9,17.3,12,24.9,4.3c6.1-6.1,6.2-15,0.5-21.4c-0.9-1-3-2.5-4.7-3.4l-3-1.5V93.1V72.4l-1.2-1.1C129.2,69.8,127.2,69.8,125.5,71.1z M132.1,122.3c5.1,2.3,5,11.4-0.1,13.8c-4.1,2-9.1,0.7-10.9-2.9c-1.9-4-0.7-9.1,2.6-10.9C126,121.2,129.5,121.1,132.1,122.3z"/><path fill="#99999999" d="M40.2,125.4c-2.9,1.2-3.7,4.6-1.6,6.7c1,1,1.6,1.1,4.6,1.1c3,0,3.6-0.1,4.6-1.1c1.7-1.5,1.7-4.1,0-5.6c-0.9-0.9-1.8-1.2-4.1-1.2C42.2,125.2,40.6,125.2,40.2,125.4z"/><path fill="#99999999" d="M209.8,125.4c-2.9,1.2-3.7,4.6-1.6,6.7c1,1,1.6,1.1,4.7,1.1c3.2,0,3.5-0.1,4.6-1.3c1.5-1.8,1.5-4,0-5.4c-0.9-0.9-1.8-1.2-4.1-1.2C211.8,125.2,210.2,125.2,209.8,125.4z"/><path fill="#99999999" d="M148.7,141.7c-3.5,0.3-4.4,0.9-4.8,3.3c-0.2,1.3,0,1.9,0.8,3c1,1.1,1.6,1.3,3.9,1.5l2.8,0.2l0.3,7.5c0.2,8.2,1,12.1,3.5,17.5c2.7,6,8,12.6,13.2,16.4l2.3,1.7l-1.6,1.2c-5.5,4.2-10.6,10.2-13.4,16c-2.9,5.9-3.7,9.9-4,18.5l-0.3,7.5h-2c-4,0-6.1,1.8-5.5,4.9c0.6,3.2-1.6,3,39,3c20.1,0,37-0.1,37.5-0.3c0.5-0.2,1.2-0.9,1.7-1.7c1.6-3.1-0.7-6-4.9-6H215l-0.3-7.5c-0.3-7.9-1-11.3-3.2-16.9c-2.4-6-8.4-13.4-14.1-17.7l-1.6-1.2l2.3-1.7c5.3-3.9,11-11.1,13.5-17.1c2.3-5.5,2.9-8.9,3.2-16.8l0.3-7.5l2.7-0.2c3-0.2,4.3-1.1,4.8-3.1c0.4-1.7-0.8-4.1-2.2-4.4C218.9,141.6,153,141.4,148.7,141.7z M206.9,156.8c-0.4,10.3-1.8,14.8-6.5,21.3c-2.5,3.4-7.1,7.3-11,9.3c-2.5,1.3-3.3,1.5-6.4,1.5c-3.4,0-3.7-0.1-7.2-2.1c-5.3-3.1-10.2-8.2-12.7-13.2c-2.7-5.6-3.3-8.4-3.6-16.7l-0.3-7.3h23.9h23.9L206.9,156.8z M190.8,199c4,2.4,9.3,7.5,11.5,11.2c3.3,5.6,4.7,11.6,4.7,20.8v5h-23.8h-23.9l0.3-7.3c0.3-8.2,0.9-11.1,3.4-16.2c2.9-6,8.1-11.2,14.2-14.4c2.6-1.3,3.1-1.4,6.5-1.3C187.1,196.9,187.7,197.1,190.8,199z"/><path fill="#99999999" d="M67.2,184.6c-4.1,2.5-5.5,6.4-3.2,8.6c2.2,2.2,5.4,1.2,8.1-2.7c1.7-2.4,1.7-3.7,0-5.5C70.6,183.6,69.2,183.4,67.2,184.6z"/></g></g></g>
</svg>